<svg width="18" height="18" xmlns="http://www.w3.org/2000/svg">
  <g fill="inherit">
    <rect x="0" y="0" width="3" height="3" />
    <rect x="5" y="0" width="3" height="3" />
    <rect x="10" y="0" width="3" height="3" />
    <rect x="15" y="0" width="3" height="3" />

    <rect x="0" y="5" width="3" height="3" />
    <rect x="5" y="5" width="3" height="3" />
    <rect x="10" y="5" width="3" height="3" />
    <rect x="15" y="5" width="3" height="3" />

    <rect x="0" y="10" width="3" height="3" />
    <rect x="5" y="10" width="3" height="3" />
    <rect x="10" y="10" width="3" height="3" />
    <rect x="15" y="10" width="3" height="3" />

    <rect x="0" y="15" width="3" height="3" />
    <rect x="5" y="15" width="3" height="3" />
    <rect x="10" y="15" width="3" height="3" />
    <rect x="15" y="15" width="3" height="3" />
  </g>
</svg>
