<svg width="22" height="22" viewBox="0 0 22 22" fill="none" xmlns="http://www.w3.org/2000/svg">
<path d="M9.25159 3.125C6.67353 3.15307 5.23469 3.31688 4.27869 4.2729C3.125 5.42657 3.125 7.28342 3.125 10.997C3.125 14.7108 3.125 16.5676 4.27869 17.7213C5.43237 18.875 7.28922 18.875 11.0029 18.875C14.7166 18.875 16.5734 18.875 17.7271 17.7213C18.6833 16.7651 18.8469 15.3258 18.875 12.7468" stroke="#A83093" stroke-width="1.3125" stroke-linecap="round" stroke-linejoin="round"/>
<path d="M12.75 3.125H16.25C17.4874 3.125 18.1061 3.125 18.4906 3.50942C18.875 3.89385 18.875 4.51257 18.875 5.75V9.25M18 4L10.125 11.875" stroke="#A83093" stroke-width="1.3125" stroke-linecap="round" stroke-linejoin="round"/>
</svg>
